<?xml version="1.0" ?><svg data-name="Layer 1" id="Layer_1" viewBox="0 0 512 512" xmlns="http://www.w3.org/2000/svg"><title/><path d="M408.55,293.15c-7.44-9.41-16.56-14.4-26.22-14.94v-6.14c0-35.94-23.52-66.17-55.86-77a71.32,71.32,0,0,0,8.08-4.52A69.89,69.89,0,0,0,364.84,146l7-33.81A70.37,70.37,0,1,0,234,83.65l-.33,1.59A70.29,70.29,0,0,0,94.21,97.57v34.52a70.21,70.21,0,0,0,39.05,62.69c-14,5.35-28.77,18.95-38.76,50.31-9.38,29.46-11.08,61.77-3.16,92.32,0,.13-.08.25-.08.39v141a6,6,0,0,0,11.92,0V368.36c12.44,23.85,32.15,45.31,60.49,61.76v48.72a6,6,0,0,0,11.92,0V436.5a214.47,214.47,0,0,0,20.18,8.7,39.68,39.68,0,0,0,13.77,2.46,41.28,41.28,0,0,0,37.54-24.5s.6-1.36.62-1.36A41.06,41.06,0,0,0,229.85,369c-34.48-19.19-54.26-38.44-54.26-52.81V272.07a69.7,69.7,0,0,1,69.63-69.61H300.8a69.69,69.69,0,0,1,69.61,69.61V301c-3.07,16.25-16.31,43.34-66.11,70.46-18.18,9.89-24.79,33.95-14.73,53.65a41.13,41.13,0,0,0,24.26,20.62,41.29,41.29,0,0,0,31.84-2.76c7.89-4.12,16.37-8.92,24.74-14.16v50.08a6,6,0,0,0,11.92,0v-58c16.54-11.66,31.09-25.05,37.15-39.11C431,355,426.08,315.31,408.55,293.15ZM238.7,119.87l7-33.8a58.49,58.49,0,0,1,57.11-46.61,59.52,59.52,0,0,1,12,1.23,58.46,58.46,0,0,1,45.37,69.1l-7,33.81A58.45,58.45,0,0,1,238.7,119.87ZM106.13,132.09V97.57a58.45,58.45,0,1,1,116.9,0v34.52a58.45,58.45,0,1,1-116.9,0Zm57.54,140v47.57a5.84,5.84,0,0,0,.8,2.8c3.79,17.9,23.7,37,59.57,57a29.15,29.15,0,0,1,12.78,37.46s-.61,1.35-.62,1.36c-6.26,14-22.22,20.93-36.3,15.74-50.81-18.72-84.25-53.2-96.72-95.83v-.38a5.74,5.74,0,0,0-1.1-3.25c-6.86-26.23-5.9-55.4,3.78-85.85,9.55-30,24.27-45.15,43.75-45.15h51.76A81.38,81.38,0,0,0,163.67,272.07Zm69.81-80.34a4,4,0,0,0-.5-.1H201.69a70.48,70.48,0,0,0,28.57-34.88,70.85,70.85,0,0,0,6.85,13.61,70.06,70.06,0,0,0,20.3,20.18H245.22A79.69,79.69,0,0,0,233.48,191.73ZM408.52,377c-7.06,16.39-31.34,36.05-68.38,55.35a29.49,29.49,0,0,1-40-12.71c-7.14-14-2.74-30.93,9.81-37.75,67.62-36.83,73.83-75.9,73.13-91.86,7,1,12.5,6,16.09,10.52C412.42,317.25,419.32,352,408.52,377Z"/></svg>