<?xml version="1.0" encoding="UTF-8" standalone="no"?> <svg width="64" height="64" viewBox="0 0 64 64" fill="none" xmlns="http://www.w3.org/2000/svg">
<path d="M45 17C45.5523 17 46 16.5523 46 16C46 15.4477 45.5523 15 45 15C44.4477 15 44 15.4477 44 16C44 16.5523 44.4477 17 45 17Z" fill="black"/>
<path d="M50.7 50.3C50.438 50.3406 50.2029 50.4837 50.0463 50.6976C49.8897 50.9116 49.8245 51.179 49.865 51.441C50.3554 54.5956 50.5679 57.7872 50.5 60.979C50.4944 61.2437 50.594 61.4999 50.7769 61.6913C50.9599 61.8827 51.2113 61.9937 51.476 62H51.5C51.7616 62.0001 52.0129 61.8976 52.1998 61.7146C52.3867 61.5315 52.4945 61.2826 52.5 61.021C52.5698 57.7128 52.3496 54.4048 51.842 51.135C51.8219 51.0052 51.7764 50.8806 51.7081 50.7683C51.6398 50.6561 51.5501 50.5584 51.444 50.4809C51.338 50.4033 51.2177 50.3474 51.09 50.3164C50.9624 50.2854 50.8298 50.2798 50.7 50.3Z" fill="black"/>
<path d="M26 18C26.5523 18 27 17.5523 27 17C27 16.4477 26.5523 16 26 16C25.4477 16 25 16.4477 25 17C25 17.5523 25.4477 18 26 18Z" fill="black"/>
<path d="M31 18C31.5523 18 32 17.5523 32 17C32 16.4477 31.5523 16 31 16C30.4477 16 30 16.4477 30 17C30 17.5523 30.4477 18 31 18Z" fill="black"/>
<path d="M32.168 21.445C31.6961 22.15 31.0184 22.6926 30.2271 22.9987C29.4359 23.3049 28.5696 23.3598 27.746 23.156L27.246 23.03C26.9887 22.9653 26.7163 23.0054 26.4886 23.1416C26.261 23.2777 26.0967 23.4987 26.032 23.756C25.9673 24.0133 26.0074 24.2857 26.1436 24.5134C26.2797 24.741 26.5007 24.9053 26.758 24.97L27.258 25.096C27.741 25.217 28.2371 25.2781 28.735 25.278C29.7434 25.2782 30.7363 25.0299 31.6259 24.5549C32.5154 24.08 33.2742 23.3931 33.835 22.555C33.9822 22.3343 34.0357 22.0642 33.9837 21.8041C33.9318 21.544 33.7787 21.3152 33.558 21.168C33.3373 21.0208 33.0672 20.9673 32.8071 21.0192C32.547 21.0712 32.3182 21.2243 32.171 21.445H32.168Z" fill="black"/>
<path d="M42 12.5C42 12.293 41.981 12.09 41.969 11.886C42.5113 11.9591 43.0578 11.9972 43.605 12H49C49.1578 12 49.3134 11.9627 49.454 11.8911C49.5946 11.8195 49.7162 11.7156 49.809 11.588L49.948 11.396C50.8944 10.0769 51.39 8.48782 51.3614 6.86466C51.3327 5.24149 50.7813 3.67085 49.789 2.386C49.6956 2.26585 49.5759 2.16863 49.4392 2.10174C49.3024 2.03484 49.1522 2.00005 49 2H40.79C39.2669 2.04229 37.7798 2.47216 36.469 3.249C34.8162 2.35899 32.9547 1.92917 31.079 2.00446C29.2033 2.07975 27.3822 2.65738 25.806 3.677C25.6914 3.74635 25.5919 3.83803 25.5134 3.94658C25.4349 4.05513 25.379 4.17834 25.3491 4.30891C25.3191 4.43948 25.3157 4.57473 25.339 4.70664C25.3623 4.83856 25.4119 4.96444 25.4848 5.07682C25.5577 5.1892 25.6525 5.28579 25.7634 5.36084C25.8744 5.4359 25.9993 5.4879 26.1307 5.51375C26.2622 5.53961 26.3975 5.53879 26.5286 5.51135C26.6597 5.4839 26.784 5.4304 26.894 5.354C28.1779 4.52621 29.6612 4.05972 31.1878 4.0036C32.7144 3.94748 34.2279 4.30381 35.5691 5.0351C36.9103 5.76639 38.0296 6.84561 38.8094 8.15925C39.5891 9.47288 40.0004 10.9724 40 12.5V14.182C39.6796 14.0644 39.3413 14.0028 39 14C38.2837 14.0026 37.581 13.8043 36.9717 13.4276C36.3624 13.0509 35.8709 12.511 35.553 11.869L34.9 10.553C34.8366 10.426 34.747 10.314 34.6369 10.2244C34.5269 10.1348 34.3991 10.0696 34.2619 10.0331C34.1248 9.99673 33.9815 9.98992 33.8415 10.0132C33.7015 10.0364 33.568 10.0892 33.45 10.168C31.6592 11.3641 29.5536 12.0017 27.4 12H23.036C23.1128 10.5396 23.5688 9.1245 24.359 7.894C24.4323 7.78384 24.4831 7.66022 24.5082 7.53031C24.5334 7.4004 24.5326 7.26679 24.5058 7.13721C24.4789 7.00763 24.4266 6.88466 24.3519 6.77544C24.2772 6.66621 24.1816 6.5729 24.0706 6.50091C23.9595 6.42892 23.8353 6.37968 23.7051 6.35604C23.5749 6.33241 23.4413 6.33485 23.3121 6.36323C23.1828 6.39161 23.0605 6.44536 22.9522 6.52136C22.8438 6.59737 22.7517 6.69412 22.681 6.806C21.5814 8.5013 20.9974 10.4793 21 12.5V20.554C18.7784 21.1714 16.7325 22.3014 15.027 23.8532C13.3215 25.405 12.0038 27.3353 11.18 29.489L10.929 30.261C10.7125 30.8629 10.6173 31.5018 10.6489 32.1407C10.6805 32.7796 10.8382 33.4059 11.113 33.9836C11.3878 34.5612 11.7742 35.0788 12.25 35.5064C12.7257 35.934 13.2814 36.2632 13.885 36.475C13.685 37.001 13.505 37.518 13.335 38.02C12.6334 37.9542 11.931 38.1375 11.351 38.5378C10.771 38.938 10.3504 39.5297 10.163 40.209L9.10702 44.067C8.91032 44.7985 8.99758 45.5773 9.3513 46.247C9.70502 46.9168 10.299 47.428 11.014 47.678C10.3248 52.0849 9.98571 56.5395 10 61C10 61.2652 10.1054 61.5196 10.2929 61.7071C10.4805 61.8946 10.7348 62 11 62C11.2652 62 11.5196 61.8946 11.7071 61.7071C11.8947 61.5196 12 61.2652 12 61C11.9874 56.7251 12.3064 52.4556 12.954 48.23L13.138 48.28C13.3956 48.3512 13.6617 48.3872 13.929 48.387C14.5866 48.386 15.2258 48.1695 15.7485 47.7705C16.2712 47.3715 16.6487 46.8121 16.823 46.178L17.351 44.249C17.5205 43.6278 17.4856 42.9685 17.2515 42.3687C17.0174 41.7688 16.5965 41.2602 16.051 40.918C16.0265 40.1458 15.7061 39.4126 15.156 38.87C15.3734 38.214 15.6154 37.5363 15.882 36.837L26 37.9H26.016L28.875 38.2C28.9102 38.204 28.9456 38.206 28.981 38.206C29.236 38.2037 29.4805 38.1041 29.6644 37.9275C29.8484 37.751 29.958 37.5108 29.9708 37.2561C29.9835 37.0015 29.8985 36.7515 29.7331 36.5574C29.5678 36.3634 29.3345 36.2398 29.081 36.212L27.217 36.012L27.847 30.042L36.792 30.986C36.9246 31.004 37.0594 30.9951 37.1884 30.9601C37.3175 30.925 37.4382 30.8644 37.5435 30.7818C37.6487 30.6993 37.7363 30.5964 37.8011 30.4794C37.8659 30.3624 37.9065 30.2336 37.9206 30.1006C37.9348 29.9676 37.9221 29.8331 37.8833 29.7051C37.8445 29.5771 37.7804 29.4582 37.6949 29.3554C37.6093 29.2525 37.504 29.168 37.3852 29.1066C37.2663 29.0452 37.1364 29.0083 37.003 28.998L34.567 28.741C35.9217 27.9486 37.0407 26.8095 37.809 25.441C38.2608 25.5319 38.6658 25.7799 38.952 26.141C39.684 27.08 40.388 28.064 41.065 29.065C40.7029 29.4978 40.4699 30.0238 40.3926 30.5828C40.3153 31.1417 40.3969 31.7112 40.628 32.226C40.2877 32.7724 40.1322 33.4138 40.1844 34.0554C40.2366 34.697 40.4938 35.3048 40.918 35.789L42.235 37.289C42.6843 37.8044 43.2968 38.15 43.9703 38.268C44.6438 38.3859 45.3374 38.2691 45.935 37.937C46.158 38.449 46.387 38.958 46.594 39.477C46.705 39.755 46.82 40.032 46.926 40.313C47.0743 40.7088 47.0634 41.1466 46.8956 41.5345C46.7278 41.9224 46.4161 42.2302 46.026 42.393L40.489 44.693L36.97 37.493C36.8951 37.3398 36.7823 37.2083 36.6423 37.111C36.5023 37.0137 36.3397 36.9538 36.17 36.937L33.059 36.617C32.7951 36.5905 32.5315 36.6699 32.3262 36.8377C32.1208 37.0056 31.9905 37.2481 31.964 37.512C31.9375 37.7759 32.0169 38.0395 32.1847 38.2449C32.3526 38.4502 32.5951 38.5805 32.859 38.607L35.418 38.87L36.873 41.848L31.423 46.259L26.648 42.218C26.4454 42.0467 26.183 41.9628 25.9186 41.985C25.6542 42.0071 25.4094 42.1334 25.238 42.336C25.0667 42.5386 24.9829 42.801 25.005 43.0654C25.0271 43.3299 25.1534 43.5747 25.356 43.746L31.587 49.018L33.009 61.099C33.0335 61.3452 33.1484 61.5735 33.3314 61.7399C33.5144 61.9063 33.7526 61.999 34 62C34.0395 62.0001 34.0789 61.9978 34.118 61.993C34.3814 61.9619 34.6216 61.8275 34.7859 61.6194C34.9501 61.4112 35.025 61.1464 34.994 60.883L33.823 50.929L34.523 51.522C35.7986 52.603 37.3807 53.2571 39.0472 53.3925C40.7137 53.5279 42.3807 53.1378 43.814 52.277L51.194 47.848C52.3161 47.1699 53.1562 46.11 53.5603 44.8627C53.9644 43.6154 53.9053 42.2643 53.394 41.057C52.929 39.9936 52.1625 39.0899 51.1892 38.4577C50.2159 37.8255 49.0786 37.4925 47.918 37.5C47.795 37.212 47.677 36.922 47.55 36.638L47.977 36.265C48.5754 35.7408 48.9411 35.0003 48.9936 34.2065C49.0461 33.4127 48.7812 32.6305 48.257 32.032L45.622 29.021C45.2764 28.6292 44.8343 28.3346 44.3395 28.1667C43.8448 27.9988 43.3147 27.9634 42.802 28.064C42.751 27.988 42.702 27.914 42.647 27.838C44.7395 27.4081 46.6173 26.264 47.9588 24.6016C49.3003 22.9392 50.0219 20.862 50 18.726V15C50 14.7348 49.8947 14.4804 49.7071 14.2929C49.5196 14.1054 49.2652 14 49 14C48.7348 14 48.4805 14.1054 48.2929 14.2929C48.1054 14.4804 48 14.7348 48 15V18.726C48.0017 20.2332 47.5459 21.7054 46.693 22.948C45.9708 23.1585 45.2048 23.1673 44.478 22.9734C43.7512 22.7795 43.0914 22.3903 42.57 21.848C42.4807 21.7478 42.3721 21.6666 42.2507 21.6093C42.1294 21.5519 41.9977 21.5196 41.8635 21.5142C41.7294 21.5089 41.5956 21.5305 41.47 21.578C41.3444 21.6255 41.2297 21.6977 41.1326 21.7905C41.0356 21.8832 40.9582 21.9946 40.9051 22.1179C40.852 22.2412 40.8243 22.3739 40.8236 22.5081C40.8229 22.6424 40.8492 22.7754 40.901 22.8992C40.9528 23.0231 41.029 23.1352 41.125 23.229C42.0315 24.174 43.2173 24.8032 44.508 25.024C43.5873 25.5846 42.5447 25.9143 41.469 25.985C41.423 25.985 41.377 25.985 41.331 25.985C41.066 25.627 40.804 25.265 40.531 24.917C40.041 24.2856 39.3691 23.8196 38.606 23.582C38.8065 22.9291 38.9316 22.2554 38.979 21.574C39.8654 21.1961 40.6221 20.5674 41.1561 19.7653C41.6902 18.9632 41.9783 18.0226 41.985 17.059L42 12.5ZM38.336 4.547C39.1209 4.2136 39.9607 4.02815 40.813 4H48.485C49.0611 4.89454 49.3674 5.93602 49.3674 7C49.3674 8.06398 49.0611 9.10546 48.485 10H43.605C42.9433 9.99347 42.2836 9.92652 41.634 9.8C41.0887 7.75685 39.9392 5.92595 38.336 4.547V4.547ZM22.993 26.538C23.2965 26.9307 23.6309 27.2985 23.993 27.638L22.3 27.457C22.5486 27.1643 22.78 26.8575 22.993 26.538V26.538ZM25.86 29.838L25.231 35.805L15.287 34.761C14.7842 34.7089 14.3027 34.5302 13.8876 34.2417C13.4725 33.9531 13.1372 33.5641 12.913 33.111C12.5942 32.4054 12.5648 31.603 12.831 30.876L13.064 30.154C13.7563 28.3591 14.8466 26.7446 16.2529 25.4319C17.6592 24.1191 19.3448 23.1423 21.183 22.575C21.3226 23.2699 21.5399 23.9468 21.831 24.593C21.3069 25.5981 20.573 26.479 19.679 27.176L18.11 27.003C17.8475 26.9779 17.5855 27.0564 17.38 27.2217C17.1744 27.387 17.0417 27.6261 17.01 27.888C16.982 28.151 17.0592 28.4144 17.2249 28.6205C17.3906 28.8267 17.6312 28.9588 17.894 28.988L25.86 29.838ZM15.422 43.722L14.9 45.649C14.8654 45.776 14.8061 45.8949 14.7254 45.9988C14.6448 46.1028 14.5444 46.1899 14.43 46.255C14.3166 46.3215 14.191 46.3647 14.0606 46.3818C13.9303 46.399 13.7978 46.3899 13.671 46.355V46.355L11.742 45.827C11.4864 45.7569 11.2691 45.5881 11.1379 45.3579C11.0066 45.1276 10.9721 44.8547 11.042 44.599L12.097 40.74C12.1672 40.4841 12.3361 40.2665 12.5667 40.1351C12.7973 40.0037 13.0706 39.9694 13.3265 40.0395C13.5825 40.1097 13.8 40.2786 13.9314 40.5092C14.0628 40.7397 14.0972 41.0131 14.027 41.269C13.9571 41.5247 13.9916 41.7976 14.1229 42.0279C14.2541 42.2581 14.4714 42.4269 14.727 42.497C14.981 42.5682 15.1966 42.7369 15.3268 42.9664C15.4569 43.1958 15.4912 43.4674 15.422 43.722ZM37 21C37 21.9586 36.803 22.9071 36.4214 23.7865C36.0397 24.6659 35.4815 25.4575 34.7813 26.1123C34.0811 26.7671 33.2539 27.2711 32.351 27.5931C31.448 27.915 30.4885 28.0481 29.532 27.984C27.7267 27.8258 26.0486 26.9887 24.8363 25.6417C23.624 24.2947 22.9678 22.5379 23 20.726V14H27.4C29.5671 14.0027 31.6998 13.4578 33.6 12.416L33.774 12.764C34.2566 13.7371 35.0017 14.5559 35.9253 15.1277C36.8488 15.6996 37.9138 16.0017 39 16C39.2503 15.9931 39.4937 16.0827 39.6799 16.2502C39.866 16.4177 39.9806 16.6503 40 16.9C40.0243 17.5813 39.8142 18.2503 39.4047 18.7954C38.9952 19.3405 38.4111 19.7286 37.75 19.895C37.5358 19.9506 37.346 20.0756 37.2104 20.2506C37.0749 20.4256 37.0012 20.6406 37.001 20.862L37 21ZM45.153 36.08C44.9534 36.2546 44.6927 36.3428 44.4281 36.3252C44.1634 36.3076 43.9167 36.1856 43.742 35.986L42.425 34.48C42.3389 34.3808 42.2732 34.2656 42.2316 34.141C42.19 34.0164 42.1734 33.8848 42.1827 33.7538C42.192 33.6228 42.227 33.4948 42.2857 33.3773C42.3445 33.2598 42.4258 33.1551 42.525 33.069C42.724 32.8941 42.8454 32.6474 42.8627 32.383C42.8799 32.1187 42.7916 31.8583 42.617 31.659C42.4422 31.4593 42.354 31.1983 42.3716 30.9335C42.3892 30.6687 42.5113 30.4218 42.711 30.247C42.9107 30.0722 43.1717 29.9839 43.4365 30.0016C43.7013 30.0192 43.9482 30.1413 44.123 30.341L46.758 33.351C46.8446 33.4498 46.9109 33.5648 46.9531 33.6893C46.9952 33.8138 47.0125 33.9453 47.0037 34.0765C46.995 34.2076 46.9605 34.3358 46.9022 34.4536C46.8439 34.5714 46.763 34.6765 46.664 34.763L45.164 36.08H45.153ZM50.165 46.133L42.786 50.562C41.7108 51.2077 40.4605 51.5006 39.2103 51.3998C37.9602 51.2991 36.7729 50.8096 35.815 50L33.161 47.75L33.138 47.73L32.975 47.593L37.775 43.709L38.691 45.584C38.9131 46.044 39.3027 46.4016 39.7801 46.5834C40.2574 46.7653 40.7862 46.7576 41.258 46.562L46.794 44.255C47.6631 43.8912 48.3575 43.2049 48.7315 42.3402C49.1055 41.4754 49.1301 40.4995 48.8 39.617L48.779 39.562C49.393 39.6898 49.967 39.9641 50.4522 40.3614C50.9375 40.7587 51.3196 41.2673 51.566 41.844C51.8874 42.6079 51.9227 43.462 51.6654 44.2498C51.4081 45.0375 50.8754 45.7062 50.165 46.133V46.133Z" fill="black"/>
</svg>
