<?xml version="1.0" ?><svg viewBox="0 0 64 64" xmlns="http://www.w3.org/2000/svg"><defs><style>.cls-1{fill:#231f20;}</style></defs><g data-name="Layer 20" id="Layer_20"><path class="cls-1" d="M17,52.75H47a7,7,0,0,0,7-7v-12a7,7,0,0,0-7-7H21.46l29-14a1,1,0,0,0-.88-1.8L16.86,26.76a7,7,0,0,0-6.86,7v12A7,7,0,0,0,17,52.75Zm35-19v12a5,5,0,0,1-5,5H32v-22H47A5,5,0,0,1,52,33.75Zm-40,0a5,5,0,0,1,4.79-5,.76.76,0,0,0,.21,0,1,1,0,0,0,.22-.05H30v22H17a5,5,0,0,1-5-5Zm25,5.5H47a3,3,0,0,0,3-3v-2a3,3,0,0,0-3-3H37a3,3,0,0,0-3,3v2A3,3,0,0,0,37,39.25Zm-1-5a1,1,0,0,1,1-1H47a1,1,0,0,1,1,1v2a1,1,0,0,1-1,1H44v-1a1,1,0,0,0-2,0v1H37a1,1,0,0,1-1-1Zm2,8a3,3,0,1,0,3,3A3,3,0,0,0,38,42.25Zm0,4a1,1,0,1,1,1-1A1,1,0,0,1,38,46.25Zm8-4a3,3,0,1,0,3,3A3,3,0,0,0,46,42.25Zm0,4a1,1,0,1,1,1-1A1,1,0,0,1,46,46.25Z"/></g></svg>