<?xml version="1.0" encoding="UTF-8" standalone="no"?> <svg id="Layer_1" data-name="Layer 1" xmlns="http://www.w3.org/2000/svg" viewBox="0 0 512 512"><defs><style>.cls-1{fill:#ad92cc;}.cls-2{fill:#fff;}.cls-3{fill:#f4607f;}.cls-4{opacity:0.1;}.cls-5{fill:#231f20;}</style></defs><title>hearts-flat</title><path class="cls-1" d="M461.14,288.59,287.43,400.23,171.62,229.53A113.89,113.89,0,0,1,203.87,72.17a112.86,112.86,0,0,1,146.91,19,112.76,112.76,0,0,1,142.61,40.08C527.7,183.42,513.21,254,461.14,288.59Z"/><path class="cls-2" d="M447.93,194.32H409.45a6.42,6.42,0,0,0-6.41-6.41V149.44A44.94,44.94,0,0,1,447.93,194.32Z"/><path class="cls-3" d="M303.91,294.16l-.13.26L224.84,458.77,58.76,383.62C8,359.7-14.09,299.1,9.38,248.38a100.75,100.75,0,0,1,119-54.7,100.62,100.62,0,0,1,126.32-34.56,102.06,102.06,0,0,1,49.18,135Z"/><path class="cls-2" d="M249.14,252H210.67V213.56A38.52,38.52,0,0,1,249.14,252Z"/><g class="cls-4"><path class="cls-5" d="M303.91,294.16l-.13.26L224.84,458.77,128.4,193.68a100.62,100.62,0,0,1,126.32-34.56,102.06,102.06,0,0,1,49.18,135Z"/></g><g class="cls-4"><path class="cls-5" d="M461.14,288.59,287.43,400.23l63.35-309a112.76,112.76,0,0,1,142.61,40.08C527.7,183.42,513.21,254,461.14,288.59Z"/></g></svg>